<?xml version="1.0" encoding="UTF-8" standalone="no"?>
<svg
   version="1.1"
   style="display: block;"
   viewBox="0 0 2048 2048"
   width="1024"
   height="1024"
   preserveAspectRatio="none"
   id="svg38"
   sodipodi:docname="logo-bg-transparent.svg"
   inkscape:version="1.4.2 (ebf0e940d0, 2025-05-08)"
   xmlns:inkscape="http://www.inkscape.org/namespaces/inkscape"
   xmlns:sodipodi="http://sodipodi.sourceforge.net/DTD/sodipodi-0.dtd"
   xmlns="http://www.w3.org/2000/svg"
   xmlns:svg="http://www.w3.org/2000/svg">
  <defs
     id="defs38" />
  <sodipodi:namedview
     id="namedview38"
     pagecolor="#ffffff"
     bordercolor="#000000"
     borderopacity="0.25"
     inkscape:showpageshadow="2"
     inkscape:pageopacity="0.0"
     inkscape:pagecheckerboard="0"
     inkscape:deskcolor="#d1d1d1"
     inkscape:zoom="0.40327184"
     inkscape:cx="-585.2132"
     inkscape:cy="902.61696"
     inkscape:window-width="2560"
     inkscape:window-height="1371"
     inkscape:window-x="2560"
     inkscape:window-y="32"
     inkscape:window-maximized="1"
     inkscape:current-layer="svg38" />
  <path
     id="path2"
     d="M 1038.9609 58.519531 C 1034.4884 58.462784 1029.987 58.727762 1025.4883 59.328125 C 997.83528 63.401225 974.45141 76.276494 957.69141 98.996094 C 948.18741 111.89139 942.12703 126.99772 940.08203 142.88672 C 921.36803 143.45072 900.94925 146.37788 882.40625 149.04688 C 825.50125 157.23787 768.63234 170.45453 714.90234 191.14453 C 703.22034 164.04953 686.70934 144.8295 658.65234 133.5625 C 632.88434 123.3595 604.08869 124.00747 578.80469 135.35547 C 555.17769 145.65647 536.63778 164.95937 527.30078 188.98438 C 517.00678 215.58338 518.99084 241.78225 530.46484 267.53125 C 532.12684 271.19525 533.84219 274.83431 535.61719 278.44531 C 472.52119 318.39931 407.37322 376.98009 356.44922 431.24609 C 339.23722 449.58809 323.54678 471.03334 307.17578 488.52734 C 278.24878 473.63334 252.05187 466.80591 219.67188 477.12891 C 195.26188 485.04691 175.0185 502.37734 163.4375 525.27734 C 151.5695 548.81934 149.48953 576.10088 157.64453 601.17188 C 166.25153 627.24888 183.82828 645.60953 208.36328 657.39453 C 173.10028 738.20253 149.64969 836.70709 139.05469 923.99609 C 136.70569 943.35109 133.05237 975.39222 132.85938 994.69922 C 105.07537 996.90622 83.436269 1006.4614 65.167969 1027.9414 C 47.666169 1048.3814 39.051887 1074.9591 41.242188 1101.7891 C 43.560187 1127.8591 56.175869 1151.9297 76.292969 1168.6797 C 96.016669 1184.9297 121.40975 1192.6511 146.84375 1190.1211 C 150.76975 1189.7611 154.67134 1189.1716 158.52734 1188.3516 C 165.27634 1217.0416 174.19409 1252.3014 183.37109 1280.1914 C 210.08009 1361.3414 254.26378 1450.5389 303.80078 1520.1289 C 279.19378 1538.5489 263.22678 1558.7905 258.67578 1590.2305 C 254.58478 1617.2305 261.52087 1644.7286 277.92188 1666.5586 C 294.44287 1688.0686 318.84619 1702.1216 345.74219 1705.6016 C 371.40219 1708.6016 397.20775 1701.2817 417.46875 1685.2617 C 420.94675 1682.5317 423.73291 1679.9706 426.62891 1676.6406 C 509.11391 1743.1806 587.11006 1790.7313 687.41406 1825.5312 C 714.69406 1834.9913 743.49394 1844.2287 771.96094 1849.4688 C 772.67294 1865.6288 773.50622 1876.6203 779.57422 1891.8203 C 795.21022 1931.0003 834.49372 1955.3081 876.51172 1953.5781 C 903.37972 1952.4981 928.70547 1940.7306 946.85547 1920.8906 C 959.03747 1907.1506 967.33172 1890.4106 970.88672 1872.3906 C 982.63172 1872.9606 1006.1394 1871.0898 1018.3594 1870.0898 C 1087.8394 1864.9198 1156.1809 1849.5786 1221.2109 1824.5586 C 1240.1909 1833.5686 1250.3105 1844.1681 1261.9805 1861.8281 C 1264.5605 1854.3181 1266.3691 1848.4914 1265.7891 1840.6914 C 1262.7891 1800.7414 1232.7695 1793.5412 1201.5195 1787.0312 C 1172.4995 1780.9912 1142.6794 1747.9098 1153.1094 1717.5898 C 1154.9794 1711.2098 1159.4184 1706.1797 1155.6484 1699.1797 C 1151.8984 1691.8697 1143.4014 1685.4695 1135.6914 1683.0195 C 1124.7814 1679.5795 1116.9619 1690.1119 1108.6719 1695.1719 C 1097.6319 1701.9819 1084.2192 1702.0092 1071.9492 1699.4492 C 1043.2092 1693.4392 1023.7081 1669.9802 1015.0781 1642.9102 C 1005.8481 1613.9702 984.23844 1611.9397 957.77344 1615.1797 C 965.35044 1620.8597 983.35562 1633.4902 988.26562 1640.6602 C 1003.0086 1662.1902 998.866 1677.2717 1018 1699.5117 C 1047.08 1733.3317 1083.7292 1737.8086 1115.9492 1758.5586 C 1148.5392 1779.5386 1151.9297 1801.5692 1197.4297 1814.1992 C 1187.9597 1818.1592 1173.1405 1821.9409 1162.9805 1824.9609 C 1100.0505 1843.6809 1037.569 1852.0681 972.08203 1854.0781 C 971.24503 1843.3781 970.68934 1834.1514 967.40234 1823.9414 C 949.69834 1768.9214 901.48884 1747.6686 847.96484 1756.3086 C 820.39884 1686.7186 794.12625 1616.6208 769.15625 1546.0508 C 757.16725 1512.4908 743.67019 1476.5789 732.99219 1442.8789 C 760.25719 1427.9689 778.80222 1406.6192 787.57422 1376.4492 C 795.66222 1349.2692 792.40787 1319.98 778.54688 1295.25 C 753.42888 1250.77 700.57119 1229 651.86719 1245.75 L 570.12109 1034.0508 C 560.10309 1007.1408 549.82425 980.34163 539.28125 953.64062 C 535.81325 944.77162 527.96816 923.30272 523.91016 916.26172 C 535.03416 909.08772 544.39991 901.94984 552.87891 891.58984 C 581.86591 855.22384 578.82072 817.62662 560.63672 777.39062 C 660.05672 710.77763 758.17475 640.51041 857.21875 573.06641 C 929.66575 632.83941 1033.8219 584.24656 1034.9219 489.22656 C 1135.3619 476.98056 1235.2805 462.07856 1335.4805 449.47656 L 1465.4414 432.16016 C 1488.0914 429.25516 1526.6709 425.61459 1548.4609 421.05859 C 1549.3109 427.97759 1549.7986 431.36275 1551.5586 438.09375 C 1530.6386 443.96075 1510.99 452.13934 1490.75 460.02734 L 1392.5703 499.28906 L 1091.8086 619.84375 C 1000.1986 596.56675 905.91972 607.95269 824.38672 656.67969 C 741.56172 706.29969 681.79341 786.74128 658.19141 880.36328 C 636.05641 973.05228 651.6095 1070.7387 701.4375 1151.9688 C 749.0655 1230.8088 832.99825 1289.5117 922.03125 1311.2617 C 1013.2382 1333.5117 1109.5489 1318.7306 1189.8789 1270.1406 C 1272.4689 1219.5006 1327.4881 1139.9513 1349.5781 1046.0312 C 1370.8181 953.52925 1354.1417 856.37109 1303.2617 776.24609 C 1268.2117 720.59309 1218.8117 675.40859 1160.2617 645.43359 C 1146.9017 638.73659 1133.0287 632.48075 1118.4688 628.96875 C 1202.0488 596.58175 1285.7711 561.37288 1369.3711 528.29688 L 1474.1914 486.41797 C 1499.9814 476.39597 1531.3594 465.23231 1556.3594 454.07031 C 1560.6294 461.79431 1564.2498 468.03037 1569.8398 474.85938 C 1601.1798 513.13738 1656.7397 521.64259 1698.4297 496.05859 C 1732.7797 541.09859 1760.4884 590.22828 1787.8984 639.48828 C 1793.4684 641.31828 1801.5589 644.37172 1807.1289 644.76172 C 1815.4689 633.67772 1727.2703 503.32828 1713.3203 485.61328 C 1753.3603 448.78428 1756.5402 386.39681 1719.6602 346.25781 C 1701.5202 326.80581 1676.4198 315.33628 1649.8398 314.36328 C 1623.9598 313.29228 1598.7413 322.62062 1579.7812 340.26562 C 1577.7812 342.13262 1575.8403 343.99894 1574.0703 346.08594 C 1467.8003 263.39394 1346.06 202.81859 1216 167.93359 C 1192.8 161.85059 1160.0919 153.79828 1136.1719 151.48828 C 1133.2319 132.05028 1129.9594 117.05725 1118.3594 100.65625 C 1100.1944 74.980338 1070.2688 58.916765 1038.9609 58.519531 z M 1040.9375 76.507812 C 1078.4982 78.149087 1110.9342 106.13775 1116.7617 144.78125 C 1123.4217 188.94525 1092.7591 230.05825 1048.5391 236.28125 C 1004.9191 242.41825 964.49959 212.27956 957.93359 168.72656 C 951.36659 125.17356 981.10384 84.460144 1024.5898 77.464844 C 1030.1023 76.578156 1035.5717 76.273345 1040.9375 76.507812 z M 620.05469 143.10156 C 661.5036 142.77644 697.24125 174.00406 701.64844 216.125 C 706.34844 261.053 673.60825 301.23022 628.65625 305.69922 C 584.03025 310.13622 544.20506 277.68794 539.53906 233.08594 C 534.87206 188.48394 567.11731 148.48975 611.69531 143.59375 C 614.50175 143.2855 617.29143 143.12324 620.05469 143.10156 z M 936.51172 161.48438 C 938.92272 161.38538 938.82072 162.21953 939.01172 164.14453 C 950.42172 279.35753 1115.7997 287.19216 1134.4297 169.66016 C 1156.6797 170.57616 1193.4108 180.05575 1215.3008 185.96875 C 1341.7408 220.39375 1459.9519 279.90784 1562.9219 360.96484 C 1553.8319 373.97984 1550.8088 386.78569 1549.4688 402.30469 C 1480.7787 412.41369 1409.1205 421.45269 1340.2305 430.42969 C 1337.5205 431.22469 1319.9898 433.28203 1315.8398 433.83203 L 1261.0117 441.08203 L 1125.8984 458.94922 C 1096.5084 462.73922 1061.1686 466.70366 1032.3086 471.59766 C 1027.8786 454.24766 1022.5208 441.177 1011.5508 426.75 C 994.44978 404.12 969.07337 389.19309 940.98438 385.24609 C 906.71537 380.65509 879.86397 392.11306 853.41797 412.41406 C 804.02297 376.35606 745.49513 327.47934 698.07812 287.90234 C 698.87113 286.95734 699.64253 285.99363 700.39453 285.01562 C 718.53853 261.44862 724.06222 237.3745 720.19922 208.0625 C 789.57122 181.8195 862.48572 166.11937 936.51172 161.48438 z M 546.82812 291.88281 C 547.61013 292.38581 553.29062 297.79791 554.64062 298.87891 C 566.56763 308.42691 573.81513 313.16916 588.32812 317.03516 L 505.71484 736.00391 C 475.59384 726.72391 448.94519 731.96053 422.61719 748.14453 C 407.97719 733.85653 394.78362 719.64959 380.89062 704.68359 C 360.20763 683.61859 340.09331 662.00238 320.57031 639.85938 C 355.90431 597.47938 360.52284 541.41163 320.21484 500.51562 C 339.23584 478.76862 356.2535 457.44722 376.3125 436.07422 C 428.3125 380.66722 484.39313 334.85181 546.82812 291.88281 z M 684.05859 301.01172 C 737.23359 342.35372 789.75375 384.53216 841.59375 427.53516 C 809.39575 462.39216 813.80356 526.40059 845.35156 560.55859 C 823.10756 574.54459 801.62034 590.32056 779.90234 605.22656 L 642.13672 700.19531 C 611.98872 720.54931 579.39181 742.29487 549.75781 763.04688 C 541.78081 756.38887 531.58697 747.17425 522.29297 743.15625 C 525.16797 721.50725 531.35928 692.67472 535.73828 670.88672 C 542.50828 636.07372 549.55691 601.31428 556.87891 566.61328 L 605.79297 321.73828 C 640.41297 323.56128 655.63259 319.88872 684.05859 301.01172 z M 1643.8359 332.55859 C 1684.5977 331.01089 1720.7 360.60891 1726.3906 401.89453 C 1732.4606 445.93253 1701.6303 486.533 1657.5703 492.5 C 1613.6703 498.447 1573.2297 467.73184 1567.1797 423.83984 C 1561.1297 379.94784 1591.7489 339.44206 1635.6289 333.28906 C 1638.3802 332.90325 1641.1185 332.66177 1643.8359 332.55859 z M 929.00781 402.39062 C 974.36745 403.34443 1012.5547 438.47625 1016.3516 484.66406 C 1020.4016 533.93106 983.79706 577.17813 934.53906 581.32812 C 885.14006 585.49113 841.74559 548.76247 837.68359 499.35547 C 833.62059 449.94847 870.43266 406.62706 919.84766 402.66406 C 922.92734 402.417 925.98384 402.32704 929.00781 402.39062 z M 252 489.76562 C 292.57981 490.39285 326.89328 521.6625 330.44922 562.96875 C 334.24322 607.02775 301.60587 645.82209 257.54688 649.62109 C 213.47987 653.42109 174.67781 620.77503 170.88281 576.70703 C 167.08881 532.64003 199.73669 493.84369 243.80469 490.05469 C 246.55844 489.818 249.29468 489.72381 252 489.76562 z M 1016.8984 627.3125 C 1187.9477 633.98603 1329.5914 769.12828 1340.7383 943.62891 C 1352.6283 1129.7619 1211.5497 1290.3703 1025.4297 1302.5703 C 838.87269 1314.8103 677.79591 1173.3104 665.87891 986.73438 C 653.96091 800.15537 795.72522 639.31684 982.32422 627.71484 C 993.95891 626.99141 1005.4952 626.8676 1016.8984 627.3125 z M 303.60156 651.90234 C 311.90356 652.50434 392.14684 745.53872 408.21484 759.26172 C 371.97684 795.52572 370.42744 843.79216 395.39844 886.78516 C 380.02844 896.38816 361.06778 910.94066 345.67578 921.84766 L 242.48438 995.42188 L 206.6875 1021 C 190.2085 1004.68 173.05766 999.24259 150.72266 995.55859 C 151.01766 972.31359 155.43644 938.64634 158.39844 915.40234 C 168.76144 834.09034 192.30575 739.06413 225.84375 663.70312 C 256.22275 671.11212 276.90356 667.17434 303.60156 651.90234 z M 476.98828 749.24609 C 517.9251 749.33155 552.94297 780.43922 557.03516 822.05859 C 561.39916 866.45259 528.92244 905.96634 484.52344 910.27734 C 440.19944 914.58134 400.76325 882.17056 396.40625 837.85156 C 392.04925 793.53256 424.41647 754.05844 468.73047 749.64844 C 471.50478 749.37231 474.25916 749.2404 476.98828 749.24609 z M 407.05078 898.85938 C 424.27978 913.92138 428.78356 918.19703 451.97656 925.33203 C 449.13356 946.85003 443.62484 973.65078 439.83984 995.42578 L 415.73828 1134.2109 C 394.63828 1258.2109 372.75756 1382.0808 350.10156 1505.8008 C 337.06056 1506.8908 332.49681 1507.8414 320.00781 1511.9414 C 306.83781 1496.5014 284.12216 1458.0905 274.16016 1440.4805 C 231.68016 1368.2105 192.06884 1266.7806 176.46484 1184.6406 C 182.19784 1181.5006 188.20169 1178.2613 193.55469 1174.5312 C 215.98069 1159.2113 231.21763 1135.4284 235.76562 1108.6484 C 240.37463 1082.4284 232.67931 1055.8217 217.57031 1034.2617 C 258.13731 1006.3317 298.30731 977.82381 338.07031 948.75781 C 361.29831 932.08381 384.91978 917.00537 407.05078 898.85938 z M 507.85547 922.18359 C 510.54747 924.93059 625.72831 1226.1186 635.44531 1253.3086 C 591.93131 1276.8586 572.82069 1326.8687 585.67969 1374.2188 C 588.99569 1386.4288 594.36034 1395.9698 600.52734 1406.8398 C 555.02034 1435.4698 517.67378 1461.6184 474.55078 1493.3984 C 457.50678 1505.8984 440.82888 1519.5283 424.29688 1532.7383 C 404.70587 1517.7883 391.46359 1510.9994 367.43359 1506.1094 C 375.62959 1473.5294 383.01266 1424.3291 388.84766 1390.5391 L 417.625 1227.2617 L 454.08594 1017.4805 C 459.07894 988.80347 465.72084 956.46903 469.83984 928.08203 C 485.78384 928.29503 493.14747 928.14459 507.85547 922.18359 z M 138.01562 1012.4688 C 178.85047 1011.8716 214.26234 1042.4039 218.87109 1083.8789 C 223.78609 1128.1089 191.77663 1167.9081 147.51562 1172.5781 C 103.59162 1177.2181 64.167163 1145.5094 59.289062 1101.6094 C 54.410962 1057.7094 85.91005 1018.1217 129.78125 1013.0117 C 132.54425 1012.6892 135.2933 1012.5086 138.01562 1012.4688 z M 691.07812 1258.2852 C 732.13291 1260.3119 767.46519 1290.9933 773.82031 1333.2383 C 781.08231 1381.5083 747.73259 1426.4881 699.43359 1433.5781 C 651.38159 1440.6281 606.67912 1407.4888 599.45312 1359.4688 C 592.22812 1311.4388 625.20412 1266.6188 673.20312 1259.2188 C 679.234 1258.2887 685.21316 1257.9956 691.07812 1258.2852 z M 612.07031 1421.0391 C 641.46731 1448.3191 676.76381 1458.2688 715.63281 1448.4688 C 721.92181 1463.8988 728.24531 1483.35 733.94531 1499.25 L 772.78516 1608.0117 C 791.36816 1659.6117 812.69534 1711.7903 830.77734 1762.8203 C 797.55734 1781.6503 786.05319 1795.0214 774.61719 1832.1914 C 737.45319 1823.7614 709.61472 1814.5281 673.76172 1802.0781 C 596.53872 1772.7381 500.57 1718.6681 439 1662.8281 C 460.842 1621.2581 461.72756 1585.8581 434.60156 1546.3281 C 488.11856 1506.1881 540.16766 1464.1108 597.84766 1429.8008 C 602.63066 1426.9608 607.35331 1423.9891 612.07031 1421.0391 z M 357.23828 1524.1016 C 398.78398 1524.5342 434.05859 1556.4102 437.83203 1598.6914 C 441.85803 1643.7814 408.51606 1683.5795 363.41406 1687.5195 C 318.43106 1691.4495 278.75719 1658.22 274.74219 1613.25 C 270.72719 1568.27 303.88847 1528.5414 348.85547 1524.4414 C 351.67347 1524.1845 354.46857 1524.0727 357.23828 1524.1016 z M 873.27344 1771.9414 C 914.7391 1772.367 950.00563 1804.0516 954.03125 1846.2109 C 958.32425 1891.1909 925.45991 1931.1719 880.50391 1935.6719 C 835.26391 1940.1919 794.96944 1907.0686 790.64844 1861.8086 C 786.32844 1816.5486 819.62725 1776.4012 864.90625 1772.2812 C 867.71831 1772.0256 870.50906 1771.913 873.27344 1771.9414 z "
     transform="translate(0,0)"
     style="fill:#e2c56d;fill-opacity:1" />
  <path
     transform="translate(0,0)"
     fill="rgb(226,197,109)"
     d="M 1165.81 804.467 L 1166.49 804.881 C 1169.03 811.932 1111.77 1043.98 1108.64 1072.96 C 1105.04 1106.23 1115.84 1105.86 1146.99 1108.1 C 1145.67 1114.36 1143.75 1121.16 1142.12 1127.4 C 1109.23 1127.96 1088.07 1130.44 1056.28 1132.29 C 1056.87 1118.53 1058.21 1104.08 1059.11 1090.24 C 1022.34 1127.46 974.546 1145.66 922.177 1134.3 C 844.847 1117.52 861.85 1036.54 874.551 979.277 C 882.182 944.869 887.988 908.513 896.172 874.069 C 902.285 847.803 895.517 839.937 870.236 834.42 C 859.524 832.795 850.012 832.351 839.252 831.766 C 840.41 825.667 842.482 818.027 843.974 811.87 C 875.577 811.336 907.168 811.193 938.609 807.675 C 946.069 806.84 953.542 806.168 961.018 805.497 C 945.462 872.981 933.494 942.695 919.219 1010.53 C 915.983 1031.98 913.741 1060.31 927.844 1078.65 C 945.498 1101.6 986.911 1101.86 1011.91 1093.19 C 1044.68 1081.84 1062.73 1052.51 1070.4 1020.08 C 1079.82 980.294 1088.38 940.071 1097.21 900.115 C 1100.64 884.426 1104.75 867.956 1106.55 852.065 C 1096.69 830.51 1068.96 831.72 1048.21 830.485 C 1050.14 823.922 1051.86 816.635 1053.58 809.96 C 1096.4 809.797 1124.09 807.711 1165.81 804.467 z"
     id="path4" />
  <path
     transform="translate(0,0)"
     fill="rgb(226,197,109)"
     d="M 1834.14 1464.77 C 1836.19 1466.38 1835.98 1468.75 1836.24 1471.49 C 1843.37 1545.25 1848.44 1619.42 1863.72 1692.07 C 1866.34 1704.54 1871.3 1715.02 1877.67 1725.94 C 1857.19 1721.61 1841.71 1718.73 1820.97 1716.47 C 1843.65 1731.97 1860.96 1750.9 1889.79 1740.26 C 1906.35 1764.47 1932.32 1810.57 1946.33 1836.74 C 1938.65 1838.49 1931.04 1840.52 1923.51 1842.82 C 1892.5 1852.53 1873.32 1868.87 1858.6 1897.26 C 1845.82 1875.8 1833.52 1844.99 1821.87 1822.02 C 1806.03 1790.77 1787.88 1760.14 1772.8 1728.86 C 1765.11 1712.9 1757.46 1684.12 1752.37 1666.47 C 1745.75 1644.06 1739.43 1621.57 1733.42 1598.99 C 1754.22 1581.83 1790.29 1547.61 1804.35 1525.09 C 1785.31 1536.52 1759.3 1559.08 1742.22 1573.49 C 1708.48 1601.97 1674.67 1633.2 1642.39 1663.52 C 1604.94 1698.69 1578.24 1724.61 1534.36 1752.27 C 1542.6 1752.47 1549.57 1752.35 1557.69 1750.97 C 1540.61 1783.57 1517.45 1816.07 1496.5 1846.46 C 1493.86 1850.4 1490.76 1855.77 1488.22 1859.9 C 1475.16 1842.78 1466.46 1836.58 1444.73 1833.57 C 1453.32 1758.15 1483.21 1704.16 1526.17 1643.62 C 1541.09 1622.34 1556.81 1601.63 1573.3 1581.55 C 1578.99 1574.76 1623.94 1524.51 1624.49 1521.33 C 1621.95 1522.72 1621.2 1523.25 1618.94 1525.21 C 1538.49 1594.68 1438.32 1723.79 1429.37 1833.06 C 1417.83 1834.88 1408.04 1837.2 1396.7 1839.89 C 1414.28 1801.57 1430.37 1765.01 1444.56 1725.26 C 1451.02 1707.16 1456.54 1680.58 1463.16 1665.29 C 1466.54 1657.49 1491.99 1624.9 1498.65 1616.5 C 1533.36 1572.75 1572.91 1514.31 1614.77 1478.02 C 1651.07 1490.71 1675.3 1502.42 1716.66 1504 C 1757.97 1505.58 1803.33 1493.01 1834.14 1464.77 z"
     id="path22" />
  <path
     transform="translate(0,0)"
     fill="rgb(226,197,109)"
     d="M 1655.24 1169.39 C 1683.36 1166.58 1711.54 1174.07 1734.55 1190.49 C 1792.88 1232.41 1810.76 1347.21 1825.8 1413.02 C 1827.61 1420.94 1828.86 1431.34 1830.16 1439.57 C 1802.23 1489 1715.67 1495.66 1667.85 1478.49 C 1659.46 1475.47 1614.89 1459.35 1611.29 1452.63 C 1611.17 1451.45 1610.51 1443.95 1611.4 1443.53 C 1642.97 1428.97 1656.74 1421.25 1675.27 1389.85 C 1656.09 1404.75 1644.08 1412.19 1621.37 1420.41 C 1617.36 1407.81 1612.13 1378.89 1609.23 1364.94 C 1621.38 1347.78 1629.81 1332.2 1638.5 1313.25 C 1646.09 1295.78 1649.91 1282.96 1655.31 1264.81 C 1632.16 1304.04 1605.78 1341.88 1580.79 1379.98 C 1571.4 1394.28 1559.79 1417.58 1547.77 1428.83 C 1534.22 1441.5 1453.2 1445.14 1431.07 1445.05 C 1426.25 1438.51 1422.28 1431.38 1419.26 1423.83 C 1406.26 1390.98 1431.22 1388.71 1453.92 1378.31 C 1474.25 1368.99 1479.11 1370.04 1500.72 1369.71 C 1514.19 1369.5 1527.13 1353.46 1533.21 1341.02 C 1526.04 1346.51 1505.41 1360.64 1496.59 1354.98 L 1496.37 1353.48 C 1503.2 1339.42 1517.27 1324.68 1523.34 1310.85 C 1554.05 1240.88 1565.77 1179.78 1655.24 1169.39 z"
     id="path23" />
  <path
     transform="translate(0,0)"
     fill="rgb(226,197,109)"
     d="M 1667.25 634.425 C 1789.27 627.616 1919.46 713.012 1968.41 823.047 C 1989.87 871.296 2004.61 934.95 1985.49 985.703 C 1984.03 939.328 1967.69 895.261 1946.45 854.602 C 1926.44 818.73 1881.12 763.717 1832.74 770.974 C 1795.33 776.587 1780.04 820.741 1760.7 848.773 C 1749.36 838.75 1737.44 829.658 1725.93 819.826 C 1740.96 802.665 1763.86 778.349 1770.62 756.951 C 1774.95 743.651 1773.65 729.158 1767.02 716.843 C 1743.24 671.764 1672.22 655.996 1625.88 654.353 C 1620.25 654.154 1614.53 653.79 1611.99 648.234 C 1614.12 635.226 1656.03 635.003 1667.25 634.425 z"
     id="path24" />
  <path
     transform="translate(0,0)"
     fill="rgb(226,197,109)"
     d="M 1383.63 1904.44 C 1422.25 1904.6 1447.39 1922.84 1446.12 1960.71 C 1445.96 1965.67 1452.78 1977.07 1452.95 1985.68 C 1453.42 2008.79 1396.6 2006.72 1385.15 2005.85 C 1369.82 1989.31 1366.13 1989.51 1344.9 1998.99 C 1340.55 2000.93 1334.77 2002.87 1330.14 2004.42 C 1327.96 2004.9 1325.76 2005.3 1323.55 2005.63 C 1303.56 2008.71 1271.38 2010.38 1253.96 1997.68 C 1243.24 1989.87 1249.44 1967.19 1257.2 1958.73 C 1270.81 1943.88 1288.1 1949.51 1305.52 1946.97 C 1333.51 1942.89 1347.61 1916.49 1371.57 1905.86 C 1373.57 1904.98 1381 1904.6 1383.63 1904.44 z"
     id="path25" />
  <path
     transform="translate(0,0)"
     fill="rgb(226,197,109)"
     d="M 1555.34 1078.4 C 1560.11 1078.3 1567.04 1109.22 1579.02 1115.04 C 1584.23 1112.11 1578.55 1096.81 1583.05 1090.87 C 1587.74 1084.69 1598.06 1084.69 1603.68 1089.33 C 1610.75 1094.15 1615.37 1109.43 1610.89 1117.91 C 1601.84 1135.06 1595.65 1156.29 1585.93 1172.88 C 1584.22 1175.8 1577.75 1181.82 1575.11 1184.19 C 1566.13 1192.08 1558.8 1200.74 1551.85 1210.45 C 1544.42 1220.82 1533.93 1215.96 1526.49 1208.62 C 1524.4 1206.55 1525.49 1203.82 1525.87 1201.21 C 1528.88 1187.46 1504.46 1178.84 1500.12 1169.28 C 1494.93 1157.87 1492.09 1141.49 1488.14 1128.75 C 1509.15 1126.28 1525.43 1123.04 1544.14 1113.19 C 1518.68 1111.03 1500.09 1112.75 1475.13 1112.44 C 1497.01 1096.2 1528.07 1081.97 1555.34 1078.4 z"
     id="path26" />
  <path
     transform="translate(0,0)"
     fill="rgb(226,197,109)"
     d="M 1302.58 1439.54 C 1316.84 1448.18 1320.78 1449.83 1336.79 1454.85 C 1318.18 1481.06 1297.96 1506.96 1278.86 1532.91 L 1169.93 1681.39 L 1169.37 1681.93 C 1166.73 1682.46 1154.06 1670.91 1150.15 1668.77 C 1146.43 1666.73 1142.93 1664.75 1138.95 1662.91 C 1143.96 1654.8 1156.68 1638.71 1162.73 1630.5 L 1203.68 1574.08 C 1220.21 1551.32 1236.93 1528.89 1253.73 1506.34 C 1269.68 1484.93 1285.8 1460.05 1302.58 1439.54 z"
     id="path27" />
  <path
     transform="translate(0,0)"
     fill="rgb(226,197,109)"
     d="M 1950.57 1901.11 C 1954.73 1900.73 1960.35 1900.2 1963.74 1902.69 C 1980.01 1914.66 1994.35 1947.51 1998.94 1966.11 C 1986.7 1968.64 1971.45 1966.85 1958.38 1972.04 C 1914.96 1989.28 1903.76 2014.79 1853.77 2004.9 C 1835.51 2000.32 1805.85 1989.07 1821.82 1962.92 C 1830.02 1949.48 1850.58 1945.17 1865.33 1942.41 C 1896.74 1987.65 1918.36 1922.2 1940.32 1905.72 C 1943.48 1903.35 1946.83 1902.33 1950.57 1901.11 z"
     id="path28" />
  <path
     transform="translate(0,0)"
     fill="rgb(226,197,109)"
     d="M 1535.23 973.378 C 1584.9 966.929 1624.42 1003.68 1637.74 1049.03 C 1612.33 1038.19 1582.6 1031.91 1555.18 1030.08 C 1518.17 1029.78 1489.36 1038.25 1456.83 1054.68 C 1458.77 1007.51 1489.67 979.103 1535.23 973.378 z"
     id="path29" />
  <path
     transform="translate(0,0)"
     fill="rgb(226,197,109)"
     d="M 1486.55 1178.65 C 1495.6 1188.3 1505.53 1192.97 1514.55 1201.98 C 1475.81 1251.04 1434.26 1310.45 1397.44 1361.56 C 1388.3 1350.87 1380.44 1347.53 1367.85 1341.94 C 1372.59 1334.28 1379.15 1325.23 1384.64 1318.04 C 1419.08 1273 1450.62 1222.19 1486.55 1178.65 z"
     id="path30" />
  <path
     transform="translate(0,0)"
     fill="rgb(226,197,109)"
     d="M 1719.7 836.435 C 1724.22 838.119 1743.58 854.884 1748.47 859.027 C 1727.7 889.994 1699.7 920.324 1677.72 951.048 C 1665.22 968.53 1650.31 987.873 1636.57 1004.35 C 1635.99 1004.56 1635.08 1004.95 1634.55 1004.35 C 1626.82 995.574 1619.4 987.804 1608.57 982.929 C 1619.74 964.689 1638.13 942.124 1651.4 924.938 L 1719.7 836.435 z"
     id="path31" />
  <path
     transform="translate(0,0)"
     fill="rgb(226,197,109)"
     d="M 1425.9 1848.41 C 1455.79 1846.6 1480.38 1858.56 1484.62 1892.12 C 1486.65 1908.19 1471.11 1923.54 1461.08 1935.01 C 1457.39 1924.32 1455.59 1920.69 1448.99 1911.53 C 1431.8 1893.31 1409.32 1887.45 1384.67 1888.73 C 1378.77 1889.03 1373.15 1891.73 1368.19 1890.98 C 1363.8 1885.57 1370.28 1870.54 1374.07 1866.5 C 1386.11 1853.65 1409.41 1850.15 1425.9 1848.41 z"
     id="path32" />
  <path
     transform="translate(0,0)"
     fill="rgb(226,197,109)"
     d="M 1940.69 1854.21 C 1944.96 1853.79 1951.2 1853.15 1955.18 1854.44 C 1967.83 1858.56 1975.76 1877.27 1981.2 1888.86 C 1928.83 1875.98 1926.37 1899.52 1902.33 1934.13 C 1884.25 1954.13 1869.79 1929.1 1862.28 1914.41 C 1876.48 1884.38 1908.27 1860.67 1940.69 1854.21 z"
     id="path33" />
  <path
     transform="translate(0,0)"
     fill="rgb(226,197,109)"
     d="M 1550.66 1044.45 C 1569.62 1043.91 1589.49 1046.66 1607.4 1052.94 C 1614.95 1055.59 1639.79 1062.51 1641.34 1070.46 C 1633.26 1075.48 1592.49 1058.24 1575.2 1058.63 C 1550.34 1059.2 1530.41 1065.69 1507.74 1075.31 C 1485.37 1084.61 1465.99 1098.95 1441.68 1103.65 C 1426.31 1106.63 1421.63 1092.79 1430.68 1082.92 C 1438.33 1074.57 1454.46 1068.47 1464.95 1064.26 C 1492.73 1053.11 1520.6 1045.82 1550.66 1044.45 z"
     id="path34" />
  <path
     transform="translate(0,0)"
     fill="rgb(226,197,109)"
     d="M 1352.1 1354.52 C 1371.04 1357.01 1381.64 1362.59 1388.09 1380.92 C 1355.07 1388.87 1357.45 1412.02 1362.64 1439.53 C 1353.91 1441.66 1347.35 1441.4 1338.55 1440.81 C 1301.77 1434.44 1296.49 1412.31 1317.56 1383.89 C 1323.71 1375.6 1329.04 1367.89 1336.81 1360.85 C 1341.28 1362.07 1346.22 1364.77 1349.69 1365.03 L 1351 1363.4 C 1351.09 1359.55 1351.34 1358.33 1352.1 1354.52 z"
     id="path35" />
  <path
     transform="translate(0,0)"
     fill="rgb(226,197,109)"
     d="M 1389.86 1396.6 L 1401.18 1395.53 C 1400.43 1416.95 1401.95 1423.86 1412.37 1442.88 C 1407.32 1442.29 1401.69 1442.13 1396.57 1441.87 C 1392.4 1441.5 1383.67 1441.23 1380.72 1438.34 C 1372.14 1429.9 1371.81 1409.05 1379.31 1399.85 C 1381.92 1396.65 1386.08 1396.8 1389.86 1396.6 z"
     id="path36" />
  <path
     transform="translate(0,0)"
     fill="rgb(226,197,109)"
     d="M 1987.89 1979.4 C 1992.07 1979.17 1995.98 1978.9 1998.11 1982.85 C 1993.26 1994.05 1944.09 2001.95 1932.17 2004.24 L 1922.23 2006 C 1944.48 1990.21 1960.88 1982.58 1987.89 1979.4 z"
     id="path37" />
  <path
     transform="translate(0,0)"
     fill="rgb(226,197,109)"
     d="M 1616.7 1128.42 C 1619.38 1129.8 1640.5 1151.32 1643.46 1154.57 L 1625.77 1158.84 C 1618.86 1160.86 1610.63 1164.03 1603.72 1166.5 C 1606.11 1156.12 1612.44 1138.13 1616.7 1128.42 z"
     id="path38" />
</svg>
