<svg version="1.1" xmlns="http://www.w3.org/2000/svg" style="display: block;" viewBox="0 0 2048 2048" width="1024" height="1024" preserveAspectRatio="none">
<path transform="translate(0,0)" fill="rgb(36,43,46)" d="M 0 0 L 2048 0 L 2048 2048 L 0 2048 L 0 0 z"/>
<path transform="translate(0,0)" fill="rgb(226,197,109)" d="M 1025.49 59.3275 C 1061.48 54.5246 1097.6 71.3141 1118.36 100.658 C 1129.96 117.059 1133.23 132.05 1136.17 151.488 C 1160.09 153.798 1192.8 161.85 1216 167.933 C 1346.06 202.818 1467.8 263.392 1574.07 346.084 C 1575.84 343.997 1577.78 342.133 1579.78 340.266 C 1598.74 322.621 1623.96 313.294 1649.84 314.365 C 1676.42 315.338 1701.52 326.806 1719.66 346.258 C 1756.54 386.397 1753.36 448.783 1713.32 485.612 C 1727.27 503.327 1815.47 633.676 1807.13 644.76 C 1801.56 644.37 1793.47 641.32 1787.9 639.49 C 1760.49 590.23 1732.78 541.099 1698.43 496.059 C 1656.74 521.643 1601.18 513.137 1569.84 474.859 C 1564.25 468.03 1560.63 461.793 1556.36 454.069 C 1531.36 465.231 1499.98 476.396 1474.19 486.418 L 1369.37 528.298 C 1285.77 561.374 1202.05 596.58 1118.47 628.967 C 1133.03 632.479 1146.9 638.735 1160.26 645.432 C 1218.81 675.407 1268.21 720.594 1303.26 776.247 C 1354.14 856.372 1370.82 953.528 1349.58 1046.03 C 1327.49 1139.95 1272.47 1219.5 1189.88 1270.14 C 1109.55 1318.73 1013.24 1333.51 922.033 1311.26 C 833 1289.51 749.066 1230.81 701.438 1151.97 C 651.61 1070.74 636.057 973.052 658.192 880.363 C 681.794 786.741 741.56 706.301 824.385 656.681 C 905.918 607.954 1000.2 596.566 1091.81 619.843 L 1392.57 499.29 L 1490.75 460.027 C 1510.99 452.139 1530.64 443.961 1551.56 438.094 C 1549.8 431.363 1549.31 427.978 1548.46 421.059 C 1526.67 425.615 1488.09 429.254 1465.44 432.159 L 1335.48 449.478 C 1235.28 462.08 1135.36 476.982 1034.92 489.228 C 1033.82 584.248 929.666 632.841 857.219 573.068 C 758.175 640.512 660.055 710.778 560.635 777.391 C 578.819 817.627 581.865 855.224 552.878 891.59 C 544.399 901.95 535.034 909.088 523.91 916.262 C 527.968 923.303 535.812 944.771 539.28 953.64 C 549.823 980.341 560.104 1007.14 570.122 1034.05 L 651.868 1245.75 C 700.572 1229 753.427 1250.77 778.545 1295.25 C 792.406 1319.98 795.664 1349.27 787.576 1376.45 C 778.804 1406.62 760.258 1427.97 732.993 1442.88 C 743.671 1476.58 757.166 1512.49 769.155 1546.05 C 794.125 1616.62 820.4 1686.72 847.966 1756.31 C 901.49 1747.67 949.697 1768.92 967.401 1823.94 C 970.688 1834.15 971.246 1843.38 972.083 1854.08 C 1037.57 1852.07 1100.05 1843.68 1162.98 1824.96 C 1173.14 1821.94 1187.96 1818.16 1197.43 1814.2 C 1151.93 1801.57 1148.54 1779.54 1115.95 1758.56 C 1083.73 1737.81 1047.08 1733.33 1018 1699.51 C 998.866 1677.27 1003.01 1662.19 988.267 1640.66 C 983.357 1633.49 965.35 1620.86 957.773 1615.18 C 984.238 1611.94 1005.85 1613.97 1015.08 1642.91 C 1023.71 1669.98 1043.21 1693.44 1071.95 1699.45 C 1084.22 1702.01 1097.63 1701.98 1108.67 1695.17 C 1116.96 1690.11 1124.78 1679.58 1135.69 1683.02 C 1143.4 1685.47 1151.9 1691.87 1155.65 1699.18 C 1159.42 1706.18 1154.98 1711.21 1153.11 1717.59 C 1142.68 1747.91 1172.5 1780.99 1201.52 1787.03 C 1232.77 1793.54 1262.79 1800.74 1265.79 1840.69 C 1266.37 1848.49 1264.56 1854.32 1261.98 1861.83 C 1250.31 1844.17 1240.19 1833.57 1221.21 1824.56 C 1156.18 1849.58 1087.84 1864.92 1018.36 1870.09 C 1006.14 1871.09 982.631 1872.96 970.886 1872.39 C 967.331 1890.41 959.036 1907.15 946.854 1920.89 C 928.704 1940.73 903.38 1952.5 876.512 1953.58 C 834.494 1955.31 795.212 1931 779.576 1891.82 C 773.508 1876.62 772.671 1865.63 771.959 1849.47 C 743.492 1844.23 714.696 1834.99 687.416 1825.53 C 587.112 1790.73 509.112 1743.18 426.627 1676.64 C 423.731 1679.97 420.945 1682.53 417.467 1685.26 C 397.206 1701.28 371.404 1708.6 345.744 1705.6 C 318.848 1702.12 294.443 1688.07 277.922 1666.56 C 261.521 1644.73 254.585 1617.23 258.676 1590.23 C 263.227 1558.79 279.193 1538.55 303.8 1520.13 C 254.263 1450.54 210.081 1361.34 183.372 1280.19 C 174.195 1252.3 165.276 1217.04 158.527 1188.35 C 154.671 1189.17 150.769 1189.76 146.843 1190.12 C 121.409 1192.65 96.0148 1184.93 76.2911 1168.68 C 56.174 1151.93 43.5606 1127.86 41.2426 1101.79 C 39.0523 1074.96 47.665 1048.38 65.1668 1027.94 C 83.4351 1006.46 105.076 996.907 132.86 994.7 C 133.053 975.393 136.707 943.353 139.056 923.998 C 149.651 836.709 173.1 738.204 208.363 657.396 C 183.828 645.611 166.25 627.247 157.643 601.17 C 149.488 576.099 151.571 548.821 163.439 525.279 C 175.02 502.379 195.261 485.047 219.671 477.129 C 252.051 466.806 278.247 473.634 307.174 488.528 C 323.545 471.034 339.238 449.587 356.45 431.245 C 407.374 376.979 472.523 318.399 535.619 278.445 C 533.844 274.834 532.126 271.195 530.464 267.531 C 518.99 241.782 517.006 215.584 527.3 188.985 C 536.637 164.96 555.176 145.656 578.803 135.355 C 604.087 124.007 632.885 123.361 658.653 133.564 C 686.71 144.831 703.22 164.048 714.902 191.143 C 768.632 170.453 825.5 157.237 882.405 149.046 C 900.948 146.377 921.367 143.451 940.081 142.887 C 942.126 126.998 948.187 111.893 957.691 98.9977 C 974.451 76.2781 997.837 63.4006 1025.49 59.3275 z"/>
<path transform="translate(0,0)" fill="rgb(36,43,46)" d="M 982.325 627.716 C 1168.48 616.141 1328.85 757.493 1340.74 943.627 C 1352.63 1129.76 1211.55 1290.37 1025.43 1302.57 C 838.873 1314.81 677.797 1173.31 665.88 986.734 C 653.962 800.155 795.726 639.318 982.325 627.716 z"/>
<path transform="translate(0,0)" fill="rgb(226,197,109)" d="M 1165.81 804.467 L 1166.49 804.881 C 1169.03 811.932 1111.77 1043.98 1108.64 1072.96 C 1105.04 1106.23 1115.84 1105.86 1146.99 1108.1 C 1145.67 1114.36 1143.75 1121.16 1142.12 1127.4 C 1109.23 1127.96 1088.07 1130.44 1056.28 1132.29 C 1056.87 1118.53 1058.21 1104.08 1059.11 1090.24 C 1022.34 1127.46 974.546 1145.66 922.177 1134.3 C 844.847 1117.52 861.85 1036.54 874.551 979.277 C 882.182 944.869 887.988 908.513 896.172 874.069 C 902.285 847.803 895.517 839.937 870.236 834.42 C 859.524 832.795 850.012 832.351 839.252 831.766 C 840.41 825.667 842.482 818.027 843.974 811.87 C 875.577 811.336 907.168 811.193 938.609 807.675 C 946.069 806.84 953.542 806.168 961.018 805.497 C 945.462 872.981 933.494 942.695 919.219 1010.53 C 915.983 1031.98 913.741 1060.31 927.844 1078.65 C 945.498 1101.6 986.911 1101.86 1011.91 1093.19 C 1044.68 1081.84 1062.73 1052.51 1070.4 1020.08 C 1079.82 980.294 1088.38 940.071 1097.21 900.115 C 1100.64 884.426 1104.75 867.956 1106.55 852.065 C 1096.69 830.51 1068.96 831.72 1048.21 830.485 C 1050.14 823.922 1051.86 816.635 1053.58 809.96 C 1096.4 809.797 1124.09 807.711 1165.81 804.467 z"/>
<path transform="translate(0,0)" fill="rgb(36,43,46)" d="M 936.512 161.486 C 938.923 161.387 938.82 162.22 939.011 164.145 C 950.421 279.358 1115.8 287.193 1134.43 169.661 C 1156.68 170.577 1193.41 180.056 1215.3 185.969 C 1341.74 220.394 1459.95 279.906 1562.92 360.963 C 1553.83 373.978 1550.81 386.784 1549.47 402.303 C 1480.78 412.412 1409.12 421.451 1340.23 430.428 C 1337.52 431.223 1319.99 433.281 1315.84 433.831 L 1261.01 441.083 L 1125.9 458.951 C 1096.51 462.741 1061.17 466.703 1032.31 471.597 C 1027.88 454.247 1022.52 441.177 1011.55 426.75 C 994.449 404.12 969.072 389.194 940.983 385.247 C 906.714 380.656 879.865 392.114 853.419 412.415 C 804.024 376.357 745.494 327.479 698.077 287.902 C 698.87 286.957 699.643 285.995 700.395 285.017 C 718.539 261.45 724.064 237.376 720.201 208.064 C 789.573 181.821 862.486 166.121 936.512 161.486 z"/>
<path transform="translate(0,0)" fill="rgb(36,43,46)" d="M 612.069 1421.04 C 641.466 1448.32 676.763 1458.27 715.632 1448.47 C 721.921 1463.9 728.246 1483.35 733.946 1499.25 L 772.784 1608.01 C 791.367 1659.61 812.697 1711.79 830.779 1762.82 C 797.559 1781.65 786.053 1795.02 774.617 1832.19 C 737.453 1823.76 709.613 1814.53 673.76 1802.08 C 596.537 1772.74 500.571 1718.67 439.001 1662.83 C 460.843 1621.26 461.727 1585.86 434.601 1546.33 C 488.118 1506.19 540.169 1464.11 597.849 1429.8 C 602.632 1426.96 607.352 1423.99 612.069 1421.04 z"/>
<path transform="translate(0,0)" fill="rgb(36,43,46)" d="M 407.05 898.86 C 424.279 913.922 428.784 918.196 451.977 925.331 C 449.134 946.849 443.625 973.652 439.84 995.427 L 415.737 1134.21 C 394.637 1258.21 372.758 1382.08 350.102 1505.8 C 337.061 1506.89 332.495 1507.84 320.006 1511.94 C 306.836 1496.5 284.122 1458.09 274.16 1440.48 C 231.68 1368.21 192.07 1266.78 176.466 1184.64 C 182.199 1181.5 188.203 1178.26 193.556 1174.53 C 215.982 1159.21 231.218 1135.43 235.766 1108.65 C 240.375 1082.43 232.68 1055.82 217.571 1034.26 C 258.138 1006.33 298.309 977.822 338.072 948.756 C 361.3 932.082 384.919 917.006 407.05 898.86 z"/>
<path transform="translate(0,0)" fill="rgb(36,43,46)" d="M 507.854 922.183 C 510.546 924.93 625.729 1226.12 635.446 1253.31 C 591.932 1276.86 572.822 1326.87 585.681 1374.22 C 588.997 1386.43 594.359 1395.97 600.526 1406.84 C 555.019 1435.47 517.674 1461.62 474.551 1493.4 C 457.507 1505.9 440.827 1519.53 424.295 1532.74 C 404.704 1517.79 391.465 1511 367.435 1506.11 C 375.631 1473.53 383.012 1424.33 388.847 1390.54 L 417.626 1227.26 L 454.087 1017.48 C 459.08 988.803 465.722 956.468 469.841 928.081 C 485.785 928.294 493.146 928.144 507.854 922.183 z"/>
<path transform="translate(0,0)" fill="rgb(36,43,46)" d="M 684.06 301.01 C 737.235 342.352 789.753 384.532 841.593 427.535 C 809.395 462.392 813.805 526.402 845.353 560.56 C 823.109 574.546 801.622 590.32 779.904 605.226 L 642.137 700.196 C 611.989 720.55 579.391 742.296 549.757 763.048 C 541.78 756.39 531.588 747.174 522.294 743.156 C 525.169 721.507 531.359 692.674 535.738 670.886 C 542.508 636.073 549.555 601.313 556.877 566.612 L 605.794 321.737 C 640.414 323.56 655.634 319.887 684.06 301.01 z"/>
<path transform="translate(0,0)" fill="rgb(36,43,46)" d="M 546.827 291.883 C 547.609 292.386 553.292 297.797 554.642 298.878 C 566.569 308.426 573.815 313.168 588.328 317.034 L 505.713 736.005 C 475.592 726.725 448.945 731.962 422.617 748.146 C 407.977 733.858 394.782 719.648 380.889 704.682 C 360.206 683.617 340.092 662.002 320.569 639.859 C 355.903 597.479 360.521 541.411 320.213 500.515 C 339.234 478.768 356.255 457.446 376.314 436.073 C 428.314 380.666 484.392 334.852 546.827 291.883 z"/>
<path transform="translate(0,0)" fill="rgb(36,43,46)" d="M 303.601 651.902 C 311.903 652.504 392.148 745.539 408.216 759.262 C 371.978 795.526 370.428 843.793 395.399 886.786 C 380.029 896.389 361.068 910.939 345.676 921.846 L 242.485 995.42 L 206.689 1021 C 190.21 1004.68 173.059 999.243 150.724 995.559 C 151.019 972.314 155.436 938.647 158.398 915.403 C 168.761 834.091 192.307 739.063 225.845 663.702 C 256.224 671.111 276.903 667.174 303.601 651.902 z"/>
<path transform="translate(0,0)" fill="rgb(36,43,46)" d="M 919.849 402.663 C 969.124 398.71 1012.3 435.397 1016.35 484.664 C 1020.4 533.931 983.799 577.177 934.541 581.327 C 885.142 585.49 841.745 548.763 837.683 499.356 C 833.62 449.949 870.434 406.626 919.849 402.663 z"/>
<path transform="translate(0,0)" fill="rgb(36,43,46)" d="M 673.202 1259.22 C 721.449 1251.78 766.556 1284.96 773.819 1333.24 C 781.081 1381.51 747.734 1426.49 699.435 1433.58 C 651.383 1440.63 606.68 1407.49 599.454 1359.47 C 592.229 1311.44 625.203 1266.62 673.202 1259.22 z"/>
<path transform="translate(0,0)" fill="rgb(36,43,46)" d="M 864.907 1772.28 C 909.9 1768.19 949.739 1801.24 954.033 1846.21 C 958.326 1891.19 925.459 1931.17 880.503 1935.67 C 835.263 1940.19 794.969 1907.07 790.648 1861.81 C 786.328 1816.55 819.628 1776.4 864.907 1772.28 z"/>
<path transform="translate(0,0)" fill="rgb(36,43,46)" d="M 348.854 1524.44 C 393.942 1520.33 433.806 1553.59 437.831 1598.69 C 441.857 1643.78 408.516 1683.58 363.414 1687.52 C 318.431 1691.45 278.759 1658.22 274.744 1613.25 C 270.729 1568.27 303.887 1528.54 348.854 1524.44 z"/>
<path transform="translate(0,0)" fill="rgb(36,43,46)" d="M 611.697 143.594 C 656.6 138.662 696.948 171.195 701.649 216.124 C 706.349 261.052 673.609 301.232 628.657 305.701 C 584.031 310.138 544.206 277.686 539.54 233.084 C 534.873 188.482 567.119 148.49 611.697 143.594 z"/>
<path transform="translate(0,0)" fill="rgb(36,43,46)" d="M 468.73 749.649 C 513.119 745.231 552.672 777.664 557.037 822.058 C 561.401 866.452 528.921 905.967 484.522 910.278 C 440.198 914.582 400.765 882.169 396.408 837.85 C 392.051 793.531 424.416 754.059 468.73 749.649 z"/>
<path transform="translate(0,0)" fill="rgb(36,43,46)" d="M 1635.63 333.288 C 1679.65 327.115 1720.32 357.857 1726.39 401.895 C 1732.46 445.933 1701.63 486.533 1657.57 492.5 C 1613.67 498.447 1573.23 467.733 1567.18 423.841 C 1561.13 379.949 1591.75 339.441 1635.63 333.288 z"/>
<path transform="translate(0,0)" fill="rgb(36,43,46)" d="M 1024.59 77.463 C 1068.69 70.3695 1110.1 100.617 1116.76 144.781 C 1123.42 188.945 1092.76 230.058 1048.54 236.281 C 1004.92 242.418 964.499 212.28 957.933 168.727 C 951.366 125.174 981.104 84.4583 1024.59 77.463 z"/>
<path transform="translate(0,0)" fill="rgb(36,43,46)" d="M 129.782 1013.01 C 173.99 1007.85 213.954 1039.64 218.87 1083.88 C 223.785 1128.11 191.776 1167.91 147.515 1172.58 C 103.591 1177.22 64.168 1145.51 59.2899 1101.61 C 54.4118 1057.71 85.9108 1018.12 129.782 1013.01 z"/>
<path transform="translate(0,0)" fill="rgb(36,43,46)" d="M 243.806 490.054 C 287.866 486.267 326.656 518.91 330.449 562.97 C 334.243 607.029 301.604 645.823 257.545 649.622 C 213.478 653.422 174.676 620.776 170.881 576.708 C 167.087 532.641 199.738 493.843 243.806 490.054 z"/>
<path transform="translate(0,0)" fill="rgb(226,197,109)" d="M 1834.14 1464.77 C 1836.19 1466.38 1835.98 1468.75 1836.24 1471.49 C 1843.37 1545.25 1848.44 1619.42 1863.72 1692.07 C 1866.34 1704.54 1871.3 1715.02 1877.67 1725.94 C 1857.19 1721.61 1841.71 1718.73 1820.97 1716.47 C 1843.65 1731.97 1860.96 1750.9 1889.79 1740.26 C 1906.35 1764.47 1932.32 1810.57 1946.33 1836.74 C 1938.65 1838.49 1931.04 1840.52 1923.51 1842.82 C 1892.5 1852.53 1873.32 1868.87 1858.6 1897.26 C 1845.82 1875.8 1833.52 1844.99 1821.87 1822.02 C 1806.03 1790.77 1787.88 1760.14 1772.8 1728.86 C 1765.11 1712.9 1757.46 1684.12 1752.37 1666.47 C 1745.75 1644.06 1739.43 1621.57 1733.42 1598.99 C 1754.22 1581.83 1790.29 1547.61 1804.35 1525.09 C 1785.31 1536.52 1759.3 1559.08 1742.22 1573.49 C 1708.48 1601.97 1674.67 1633.2 1642.39 1663.52 C 1604.94 1698.69 1578.24 1724.61 1534.36 1752.27 C 1542.6 1752.47 1549.57 1752.35 1557.69 1750.97 C 1540.61 1783.57 1517.45 1816.07 1496.5 1846.46 C 1493.86 1850.4 1490.76 1855.77 1488.22 1859.9 C 1475.16 1842.78 1466.46 1836.58 1444.73 1833.57 C 1453.32 1758.15 1483.21 1704.16 1526.17 1643.62 C 1541.09 1622.34 1556.81 1601.63 1573.3 1581.55 C 1578.99 1574.76 1623.94 1524.51 1624.49 1521.33 C 1621.95 1522.72 1621.2 1523.25 1618.94 1525.21 C 1538.49 1594.68 1438.32 1723.79 1429.37 1833.06 C 1417.83 1834.88 1408.04 1837.2 1396.7 1839.89 C 1414.28 1801.57 1430.37 1765.01 1444.56 1725.26 C 1451.02 1707.16 1456.54 1680.58 1463.16 1665.29 C 1466.54 1657.49 1491.99 1624.9 1498.65 1616.5 C 1533.36 1572.75 1572.91 1514.31 1614.77 1478.02 C 1651.07 1490.71 1675.3 1502.42 1716.66 1504 C 1757.97 1505.58 1803.33 1493.01 1834.14 1464.77 z"/>
<path transform="translate(0,0)" fill="rgb(226,197,109)" d="M 1655.24 1169.39 C 1683.36 1166.58 1711.54 1174.07 1734.55 1190.49 C 1792.88 1232.41 1810.76 1347.21 1825.8 1413.02 C 1827.61 1420.94 1828.86 1431.34 1830.16 1439.57 C 1802.23 1489 1715.67 1495.66 1667.85 1478.49 C 1659.46 1475.47 1614.89 1459.35 1611.29 1452.63 C 1611.17 1451.45 1610.51 1443.95 1611.4 1443.53 C 1642.97 1428.97 1656.74 1421.25 1675.27 1389.85 C 1656.09 1404.75 1644.08 1412.19 1621.37 1420.41 C 1617.36 1407.81 1612.13 1378.89 1609.23 1364.94 C 1621.38 1347.78 1629.81 1332.2 1638.5 1313.25 C 1646.09 1295.78 1649.91 1282.96 1655.31 1264.81 C 1632.16 1304.04 1605.78 1341.88 1580.79 1379.98 C 1571.4 1394.28 1559.79 1417.58 1547.77 1428.83 C 1534.22 1441.5 1453.2 1445.14 1431.07 1445.05 C 1426.25 1438.51 1422.28 1431.38 1419.26 1423.83 C 1406.26 1390.98 1431.22 1388.71 1453.92 1378.31 C 1474.25 1368.99 1479.11 1370.04 1500.72 1369.71 C 1514.19 1369.5 1527.13 1353.46 1533.21 1341.02 C 1526.04 1346.51 1505.41 1360.64 1496.59 1354.98 L 1496.37 1353.48 C 1503.2 1339.42 1517.27 1324.68 1523.34 1310.85 C 1554.05 1240.88 1565.77 1179.78 1655.24 1169.39 z"/>
<path transform="translate(0,0)" fill="rgb(226,197,109)" d="M 1667.25 634.425 C 1789.27 627.616 1919.46 713.012 1968.41 823.047 C 1989.87 871.296 2004.61 934.95 1985.49 985.703 C 1984.03 939.328 1967.69 895.261 1946.45 854.602 C 1926.44 818.73 1881.12 763.717 1832.74 770.974 C 1795.33 776.587 1780.04 820.741 1760.7 848.773 C 1749.36 838.75 1737.44 829.658 1725.93 819.826 C 1740.96 802.665 1763.86 778.349 1770.62 756.951 C 1774.95 743.651 1773.65 729.158 1767.02 716.843 C 1743.24 671.764 1672.22 655.996 1625.88 654.353 C 1620.25 654.154 1614.53 653.79 1611.99 648.234 C 1614.12 635.226 1656.03 635.003 1667.25 634.425 z"/>
<path transform="translate(0,0)" fill="rgb(226,197,109)" d="M 1383.63 1904.44 C 1422.25 1904.6 1447.39 1922.84 1446.12 1960.71 C 1445.96 1965.67 1452.78 1977.07 1452.95 1985.68 C 1453.42 2008.79 1396.6 2006.72 1385.15 2005.85 C 1369.82 1989.31 1366.13 1989.51 1344.9 1998.99 C 1340.55 2000.93 1334.77 2002.87 1330.14 2004.42 C 1327.96 2004.9 1325.76 2005.3 1323.55 2005.63 C 1303.56 2008.71 1271.38 2010.38 1253.96 1997.68 C 1243.24 1989.87 1249.44 1967.19 1257.2 1958.73 C 1270.81 1943.88 1288.1 1949.51 1305.52 1946.97 C 1333.51 1942.89 1347.61 1916.49 1371.57 1905.86 C 1373.57 1904.98 1381 1904.6 1383.63 1904.44 z"/>
<path transform="translate(0,0)" fill="rgb(226,197,109)" d="M 1555.34 1078.4 C 1560.11 1078.3 1567.04 1109.22 1579.02 1115.04 C 1584.23 1112.11 1578.55 1096.81 1583.05 1090.87 C 1587.74 1084.69 1598.06 1084.69 1603.68 1089.33 C 1610.75 1094.15 1615.37 1109.43 1610.89 1117.91 C 1601.84 1135.06 1595.65 1156.29 1585.93 1172.88 C 1584.22 1175.8 1577.75 1181.82 1575.11 1184.19 C 1566.13 1192.08 1558.8 1200.74 1551.85 1210.45 C 1544.42 1220.82 1533.93 1215.96 1526.49 1208.62 C 1524.4 1206.55 1525.49 1203.82 1525.87 1201.21 C 1528.88 1187.46 1504.46 1178.84 1500.12 1169.28 C 1494.93 1157.87 1492.09 1141.49 1488.14 1128.75 C 1509.15 1126.28 1525.43 1123.04 1544.14 1113.19 C 1518.68 1111.03 1500.09 1112.75 1475.13 1112.44 C 1497.01 1096.2 1528.07 1081.97 1555.34 1078.4 z"/>
<path transform="translate(0,0)" fill="rgb(226,197,109)" d="M 1302.58 1439.54 C 1316.84 1448.18 1320.78 1449.83 1336.79 1454.85 C 1318.18 1481.06 1297.96 1506.96 1278.86 1532.91 L 1169.93 1681.39 L 1169.37 1681.93 C 1166.73 1682.46 1154.06 1670.91 1150.15 1668.77 C 1146.43 1666.73 1142.93 1664.75 1138.95 1662.91 C 1143.96 1654.8 1156.68 1638.71 1162.73 1630.5 L 1203.68 1574.08 C 1220.21 1551.32 1236.93 1528.89 1253.73 1506.34 C 1269.68 1484.93 1285.8 1460.05 1302.58 1439.54 z"/>
<path transform="translate(0,0)" fill="rgb(226,197,109)" d="M 1950.57 1901.11 C 1954.73 1900.73 1960.35 1900.2 1963.74 1902.69 C 1980.01 1914.66 1994.35 1947.51 1998.94 1966.11 C 1986.7 1968.64 1971.45 1966.85 1958.38 1972.04 C 1914.96 1989.28 1903.76 2014.79 1853.77 2004.9 C 1835.51 2000.32 1805.85 1989.07 1821.82 1962.92 C 1830.02 1949.48 1850.58 1945.17 1865.33 1942.41 C 1896.74 1987.65 1918.36 1922.2 1940.32 1905.72 C 1943.48 1903.35 1946.83 1902.33 1950.57 1901.11 z"/>
<path transform="translate(0,0)" fill="rgb(226,197,109)" d="M 1535.23 973.378 C 1584.9 966.929 1624.42 1003.68 1637.74 1049.03 C 1612.33 1038.19 1582.6 1031.91 1555.18 1030.08 C 1518.17 1029.78 1489.36 1038.25 1456.83 1054.68 C 1458.77 1007.51 1489.67 979.103 1535.23 973.378 z"/>
<path transform="translate(0,0)" fill="rgb(226,197,109)" d="M 1486.55 1178.65 C 1495.6 1188.3 1505.53 1192.97 1514.55 1201.98 C 1475.81 1251.04 1434.26 1310.45 1397.44 1361.56 C 1388.3 1350.87 1380.44 1347.53 1367.85 1341.94 C 1372.59 1334.28 1379.15 1325.23 1384.64 1318.04 C 1419.08 1273 1450.62 1222.19 1486.55 1178.65 z"/>
<path transform="translate(0,0)" fill="rgb(226,197,109)" d="M 1719.7 836.435 C 1724.22 838.119 1743.58 854.884 1748.47 859.027 C 1727.7 889.994 1699.7 920.324 1677.72 951.048 C 1665.22 968.53 1650.31 987.873 1636.57 1004.35 C 1635.99 1004.56 1635.08 1004.95 1634.55 1004.35 C 1626.82 995.574 1619.4 987.804 1608.57 982.929 C 1619.74 964.689 1638.13 942.124 1651.4 924.938 L 1719.7 836.435 z"/>
<path transform="translate(0,0)" fill="rgb(226,197,109)" d="M 1425.9 1848.41 C 1455.79 1846.6 1480.38 1858.56 1484.62 1892.12 C 1486.65 1908.19 1471.11 1923.54 1461.08 1935.01 C 1457.39 1924.32 1455.59 1920.69 1448.99 1911.53 C 1431.8 1893.31 1409.32 1887.45 1384.67 1888.73 C 1378.77 1889.03 1373.15 1891.73 1368.19 1890.98 C 1363.8 1885.57 1370.28 1870.54 1374.07 1866.5 C 1386.11 1853.65 1409.41 1850.15 1425.9 1848.41 z"/>
<path transform="translate(0,0)" fill="rgb(226,197,109)" d="M 1940.69 1854.21 C 1944.96 1853.79 1951.2 1853.15 1955.18 1854.44 C 1967.83 1858.56 1975.76 1877.27 1981.2 1888.86 C 1928.83 1875.98 1926.37 1899.52 1902.33 1934.13 C 1884.25 1954.13 1869.79 1929.1 1862.28 1914.41 C 1876.48 1884.38 1908.27 1860.67 1940.69 1854.21 z"/>
<path transform="translate(0,0)" fill="rgb(226,197,109)" d="M 1550.66 1044.45 C 1569.62 1043.91 1589.49 1046.66 1607.4 1052.94 C 1614.95 1055.59 1639.79 1062.51 1641.34 1070.46 C 1633.26 1075.48 1592.49 1058.24 1575.2 1058.63 C 1550.34 1059.2 1530.41 1065.69 1507.74 1075.31 C 1485.37 1084.61 1465.99 1098.95 1441.68 1103.65 C 1426.31 1106.63 1421.63 1092.79 1430.68 1082.92 C 1438.33 1074.57 1454.46 1068.47 1464.95 1064.26 C 1492.73 1053.11 1520.6 1045.82 1550.66 1044.45 z"/>
<path transform="translate(0,0)" fill="rgb(226,197,109)" d="M 1352.1 1354.52 C 1371.04 1357.01 1381.64 1362.59 1388.09 1380.92 C 1355.07 1388.87 1357.45 1412.02 1362.64 1439.53 C 1353.91 1441.66 1347.35 1441.4 1338.55 1440.81 C 1301.77 1434.44 1296.49 1412.31 1317.56 1383.89 C 1323.71 1375.6 1329.04 1367.89 1336.81 1360.85 C 1341.28 1362.07 1346.22 1364.77 1349.69 1365.03 L 1351 1363.4 C 1351.09 1359.55 1351.34 1358.33 1352.1 1354.52 z"/>
<path transform="translate(0,0)" fill="rgb(226,197,109)" d="M 1389.86 1396.6 L 1401.18 1395.53 C 1400.43 1416.95 1401.95 1423.86 1412.37 1442.88 C 1407.32 1442.29 1401.69 1442.13 1396.57 1441.87 C 1392.4 1441.5 1383.67 1441.23 1380.72 1438.34 C 1372.14 1429.9 1371.81 1409.05 1379.31 1399.85 C 1381.92 1396.65 1386.08 1396.8 1389.86 1396.6 z"/>
<path transform="translate(0,0)" fill="rgb(226,197,109)" d="M 1987.89 1979.4 C 1992.07 1979.17 1995.98 1978.9 1998.11 1982.85 C 1993.26 1994.05 1944.09 2001.95 1932.17 2004.24 L 1922.23 2006 C 1944.48 1990.21 1960.88 1982.58 1987.89 1979.4 z"/>
<path transform="translate(0,0)" fill="rgb(226,197,109)" d="M 1616.7 1128.42 C 1619.38 1129.8 1640.5 1151.32 1643.46 1154.57 L 1625.77 1158.84 C 1618.86 1160.86 1610.63 1164.03 1603.72 1166.5 C 1606.11 1156.12 1612.44 1138.13 1616.7 1128.42 z"/>
</svg>